# xmcd
#
# Track frame offsets: 
#        150
#        21400
#        44245
#
# Disc length: 864 seconds
#
# Revision: 0
# Processed by: cddbd v1.5.2PL0 Copyright (c) Steve Scherf et al.
# Submitted via: ExactAudioCopy v1.0b3
#
DISCID=27035e03
DTITLE=Hi-Five - Never Should've Let You Go
DYEAR=1993
DGENRE=Soul
TTITLE0=Never Should've Let You Go
TTITLE1=Whenever You Say
TTITLE2=She's Playing Hard To Get (Hula and K. Fingers Radio Mix)
EXTD=
EXTT0=
EXTT1=
EXTT2=
PLAYORDER=
